<?xml version="1.0" encoding="UTF-8" standalone="no"?>
<!-- Created with Inkscape (http://www.inkscape.org/) -->

<!-- Taken from: https://github.com/flipdot/optik/blob/master/logo/flipdot-logo-notext.svg -->

<svg
   xmlns:dc="http://purl.org/dc/elements/1.1/"
   xmlns:cc="http://creativecommons.org/ns#"
   xmlns:rdf="http://www.w3.org/1999/02/22-rdf-syntax-ns#"
   xmlns:svg="http://www.w3.org/2000/svg"
   xmlns="http://www.w3.org/2000/svg"
   xmlns:sodipodi="http://sodipodi.sourceforge.net/DTD/sodipodi-0.dtd"
   xmlns:inkscape="http://www.inkscape.org/namespaces/inkscape"
   id="svg2"
   version="1.1"
   inkscape:version="0.92.2 5c3e80d, 2017-08-06"
   width="106.66666"
   height="51.200001"
   xml:space="preserve"
   sodipodi:docname="flipdot-logo.svg"
   viewBox="0 0 100 48"><metadata
     id="metadata8"><rdf:RDF><cc:Work
         rdf:about=""><dc:format>image/svg+xml</dc:format><dc:type
           rdf:resource="http://purl.org/dc/dcmitype/StillImage" /><dc:title></dc:title></cc:Work></rdf:RDF></metadata><defs
     id="defs6" /><sodipodi:namedview
     pagecolor="#ffffff"
     bordercolor="#666666"
     borderopacity="1"
     objecttolerance="10"
     gridtolerance="10"
     guidetolerance="10"
     inkscape:pageopacity="0"
     inkscape:pageshadow="2"
     inkscape:window-width="1366"
     inkscape:window-height="714"
     id="namedview4"
     showgrid="false"
     inkscape:zoom="4.7893008"
     inkscape:cx="53.334356"
     inkscape:cy="21.06886"
     inkscape:window-x="0"
     inkscape:window-y="26"
     inkscape:window-maximized="0"
     inkscape:current-layer="g12" /><g
     id="g10"
     inkscape:groupmode="layer"
     inkscape:label="ink_ext_XXXXXX"
     transform="matrix(1.6285205,0,0,-1.6285205,-0.02761717,363.11692)"><g
       id="g12"
       transform="scale(0.1)"><path
         d="m 465.12809,2228.36 c 28.78915,0 55.67992,-8.3807 78.36739,-22.8235 v -23.5609 l 18.3119,-18.3118 h 24.74606 c 15.81749,-23.3836 25.06819,-51.5456 25.06819,-81.799 0,-80.6852 -65.80745,-146.493 -146.49354,-146.493 -80.68608,0 -146.49525,65.8078 -146.49525,146.493 0,80.6877 65.80917,146.4952 146.49525,146.4952"
         style="fill:#231f20;fill-opacity:1;fill-rule:evenodd;stroke:none"
         id="path14"
         inkscape:connector-curvature="0" /><path
         d="m 465.12809,2228.36 c 28.78915,0 55.67992,-8.3807 78.36739,-22.8235 v -23.5609 l 18.3119,-18.3118 h 24.74606 c 15.81749,-23.3836 25.06819,-51.5456 25.06819,-81.799 0,-80.6852 -65.80745,-146.493 -146.49354,-146.493 -80.68608,0 -146.49525,65.8078 -146.49525,146.493 0,80.6877 65.80917,146.4952 146.49525,146.4952 z"
         style="fill:#000000;stroke:#231f20;stroke-width:0.3720952;stroke-linecap:butt;stroke-linejoin:miter;stroke-miterlimit:2.61310005;stroke-dasharray:none;stroke-opacity:1"
         id="path16"
         inkscape:connector-curvature="0" /><path
         d="m 147.724,2228.36 c 28.78915,0 55.67992,-8.3807 78.36739,-22.8235 v -23.5609 l 18.3119,-18.3118 h 24.74606 c 15.81749,-23.3836 25.06819,-51.5456 25.06819,-81.799 0,-80.6852 -65.80745,-146.493 -146.49354,-146.493 -80.685911,0 -146.4943916,65.8078 -146.4943916,146.493 0,80.6877 65.8084806,146.4952 146.4943916,146.4952"
         style="fill:#f5c600;fill-opacity:1;fill-rule:evenodd;stroke:none"
         id="path18"
         inkscape:connector-curvature="0" /><path
         d="m 147.724,2228.36 c 28.78915,0 55.67992,-8.3807 78.36739,-22.8235 v -23.5609 l 18.3119,-18.3118 h 24.74606 c 15.81749,-23.3836 25.06819,-51.5456 25.06819,-81.799 0,-80.6852 -65.80745,-146.493 -146.49354,-146.493 -80.685911,0 -146.4943916,65.8078 -146.4943916,146.493 0,80.6877 65.8084806,146.4952 146.4943916,146.4952 z"
         style="fill:none;stroke:#fff200;stroke-width:0.3720952;stroke-linecap:butt;stroke-linejoin:miter;stroke-miterlimit:2.61310005;stroke-dasharray:none;stroke-opacity:1"
         id="path20"
         inkscape:connector-curvature="0" /><path
         d="m 49.10758,2111.7169 h 5.927683 v 11.8845 c 0,6.634 2.303372,12.2844 6.940436,16.8615 4.606746,4.5754 10.227623,6.8787 16.799926,6.8787 h 5.958002 c 3.962125,0 5.927684,-1.9657 5.927684,-5.9278 0,-3.9604 -1.965559,-5.957 -5.927684,-5.957 h -5.926994 c -3.317504,0 -6.112007,-1.168 -8.415553,-3.4711 -2.303372,-2.3032 -3.470131,-5.0974 -3.470131,-8.3843 v -11.8845 h 17.812678 c 3.962125,0 5.927684,-1.9674 5.927684,-5.9278 0,-3.9621 -1.965559,-5.9587 -5.927684,-5.9587 H 66.920949 v -65.3233 c 0,-3.9622 -1.965559,-5.9277 -5.927684,-5.9277 -3.962125,0 -5.958002,1.9655 -5.958002,5.9277 v 65.3233 H 49.10758 c -3.961436,0 -5.958003,1.9966 -5.958003,5.9587 0,3.9604 1.996567,5.9278 5.958003,5.9278"
         style="fill:#000000;fill-opacity:1;fill-rule:evenodd;stroke:none"
         id="path56"
         inkscape:connector-curvature="0" /><path
         d="m 114.43216,2141.4138 c 0,3.9621 1.99657,5.9278 5.958,5.9278 3.96145,0 5.92769,-1.9657 5.92769,-5.9278 v -95.0221 c 0,-3.0715 1.96555,-5.0371 5.927,-5.9276 3.96211,-0.9217 5.92768,-2.8873 5.92768,-5.957 0,-3.9622 -1.96557,-5.9277 -5.92768,-5.9277 -5.34354,0 -9.64347,1.5658 -12.89844,4.7287 -3.28649,3.1336 -4.91425,7.4936 -4.91425,13.0836 v 95.0221"
         style="fill:#000000;fill-opacity:1;fill-rule:evenodd;stroke:none"
         id="path58"
         inkscape:connector-curvature="0" /><path
         d="m 161.91306,2105.7891 c 0,3.9604 1.99657,5.9278 5.958,5.9278 3.96213,0 5.92717,-1.9674 5.92717,-5.9278 v -71.282 c 0,-3.9622 -1.96504,-5.9277 -5.92717,-5.9277 -3.96143,0 -5.958,1.9655 -5.958,5.9277 z m 0,29.6677 v 5.957 c 0,3.9621 1.99657,5.9278 5.958,5.9278 3.96213,0 5.92717,-1.9657 5.92717,-5.9278 v -5.957 c 0,-3.9621 -1.96504,-5.9276 -5.92717,-5.9276 -3.96143,0 -5.958,1.9655 -5.958,5.9276"
         style="fill:#000000;fill-opacity:1;fill-rule:evenodd;stroke:none"
         id="path60"
         inkscape:connector-curvature="0" /><path
         d="m 197.53825,2105.7891 c 0,3.9604 1.96727,5.9278 5.92768,5.9278 h 29.69871 c 6.66498,0 12.2843,-2.3033 16.8907,-6.8804 4.57712,-4.6065 6.88032,-10.2274 6.88032,-16.8598 v -35.6573 c 0,-6.572 -2.3032,-12.1931 -6.88032,-16.7993 -4.6064,-4.6375 -10.22572,-6.9407 -16.8597,-6.9407 h -23.77101 v -29.6985 c 0,-3.9622 -1.96557,-5.9278 -5.9277,-5.9278 -3.96211,0 -5.95868,1.9656 -5.95868,5.9278 z m 11.88638,-5.9587 v -59.3663 h 23.74001 c 3.31613,0 6.11201,1.1679 8.41521,3.4711 2.30319,2.3032 3.47117,5.0973 3.47117,8.4152 v 35.5953 c 0,3.3782 -1.13696,6.2035 -3.40916,8.4756 -2.3032,2.2739 -5.09908,3.4091 -8.47722,3.4091 h -23.74001"
         style="fill:#000000;fill-opacity:1;fill-rule:evenodd;stroke:none"
         id="path62"
         inkscape:connector-curvature="0" /><path
         d="m 364.72614,2086.0681 c 0,4.2997 1.04392,8.2912 3.1628,11.9466 4.48409,7.8623 11.36441,11.7934 20.60822,11.7934 h 23.74002 v 29.6987 c 0,3.9621 1.99828,5.9277 5.95868,5.9277 3.96213,0 5.9277,-1.9656 5.9277,-5.9277 v -106.9085 c 0,-3.9621 -1.96557,-5.9277 -5.9277,-5.9277 h -29.6987 c -6.66327,0 -12.28431,2.3033 -16.89243,6.8787 -4.5754,4.6081 -6.87859,10.2275 -6.87859,16.8614 z m 23.77102,11.8537 c -3.31613,0 -6.11201,-1.1664 -8.41521,-3.4695 -2.3032,-2.3033 -3.46944,-5.0991 -3.46944,-8.4152 v -35.5954 c 0,-3.2559 1.16624,-6.05 3.50046,-8.3841 2.33419,-2.3342 5.12836,-3.5023 8.38419,-3.5023 h 23.74002 v 59.3665 h -23.74002"
         style="fill:#f5c600;fill-opacity:1;fill-rule:evenodd;stroke:none"
         id="path64"
         inkscape:connector-curvature="0" /><path
         d="m 447.86357,2056.3694 v 23.7399 c 0,8.2311 2.88719,15.2336 8.69256,21.008 5.77264,5.8037 12.77526,8.6908 21.00615,8.6908 8.35319,0 15.38682,-2.8562 21.09917,-8.5994 5.74336,-5.7125 8.59954,-12.7462 8.59954,-21.0994 v -23.7399 c 0,-8.231 -2.88719,-15.2335 -8.69257,-21.0079 -5.77263,-5.8036 -12.77526,-8.6909 -21.00614,-8.6909 -8.23089,0 -15.23351,2.8873 -21.00615,8.6909 -5.80537,5.7744 -8.69256,12.7769 -8.69256,21.0079 z m 47.51277,0 v 23.7399 c 0,4.9148 -1.75195,9.1216 -5.2214,12.5927 -3.47116,3.4695 -7.6779,5.2198 -12.59266,5.2198 -4.91304,0 -9.1215,-1.7503 -12.59094,-5.2198 -3.47117,-3.4711 -5.22139,-7.6779 -5.22139,-12.5927 v -23.7399 c 0,-4.9751 1.71921,-9.1836 5.15937,-12.6529 3.46944,-3.4403 7.6779,-5.1612 12.65296,-5.1612 4.91476,0 9.1215,1.7503 12.59266,5.2215 3.46945,3.4711 5.2214,7.6779 5.2214,12.5926"
         style="fill:#f5c600;fill-opacity:1;fill-rule:evenodd;stroke:none"
         id="path66"
         inkscape:connector-curvature="0" /><path
         d="m 542.88738,2097.9218 h -5.92769 c -3.96211,0 -5.95868,1.9965 -5.95868,5.9586 0,3.9622 1.99657,5.9277 5.95868,5.9277 h 5.92769 v 29.6987 c 0,3.9621 1.99657,5.9277 5.95868,5.9277 3.96041,0 5.92597,-1.9656 5.92597,-5.9277 v -29.6987 h 17.81405 c 3.96041,0 5.92597,-1.9655 5.92597,-5.9277 0,-3.9621 -1.96556,-5.9586 -5.92597,-5.9586 h -17.81405 v -65.3235 c 0,-3.9621 -1.96556,-5.9277 -5.92597,-5.9277 -3.96211,0 -5.95868,1.9656 -5.95868,5.9277 v 65.3235"
         style="fill:#f5c600;fill-opacity:1;fill-rule:evenodd;stroke:none"
         id="path68"
         inkscape:connector-curvature="0" /></g></g></svg>